<svg xmlns="http://www.w3.org/2000/svg" width="620" height="210" viewBox="0 0 620 210" role="img" aria-labelledby="title desc">
<title id="title">产品架构拆解</title><desc id="desc">基于真实证据，从用户、技术、模型、数据四层拆解产品，整理成可复用的分析工作流。</desc>
<rect x=".75" y=".75" width="598.5" height="208.5" rx="9" fill="#0d1117" stroke="#30363d" stroke-width="1.5"/>
<g font-family="-apple-system,BlinkMacSystemFont,Segoe UI,Noto Sans CJK SC,PingFang SC,Microsoft YaHei,sans-serif">
<g transform="translate(24 24)" fill="none" stroke="#8b949e" stroke-width="1.7"><path d="M3 2h15v20H3a2 2 0 0 1-2-2V4a2 2 0 0 1 2-2Zm-2 15h17M5 17v7l3-2 3 2v-7"/></g>
<text x="56" y="43" fill="#58a6ff" font-size="22" font-weight="600">产品架构拆解</text>
<rect x="512" y="23" width="64" height="26" rx="13" fill="none" stroke="#30363d"/>
<text x="544" y="41" text-anchor="middle" fill="#8b949e" font-size="15">Public</text>
<text x="24" y="81" fill="#8b949e" font-size="19">基于真实证据，从用户、技术、模型、数据四层</text>
<text x="24" y="108" fill="#8b949e" font-size="19">拆解产品，整理成可复用的分析工作流。</text>
<circle cx="31" cy="177" r="7" fill="#8250df"/>
<text x="47" y="183" fill="#8b949e" font-size="17">Skill</text>
<g transform="translate(230 166)" fill="none" stroke="#8b949e" stroke-width="1.6"><path d="m10 1 2.8 5.7 6.2.9-4.5 4.4 1.1 6.2-5.6-3-5.6 3 1.1-6.2L1 7.6l6.2-.9Z"/></g>
<text x="258" y="183" fill="#8b949e" font-size="17">0</text>
<g transform="translate(350 166)" fill="none" stroke="#8b949e" stroke-width="1.6"><circle cx="5" cy="3" r="2.5"/><circle cx="15" cy="3" r="2.5"/><circle cx="10" cy="17" r="2.5"/><path d="M5 5.5V8c0 3 10 3 10 0V5.5M10 10v4.5"/></g>
<text x="378" y="183" fill="#8b949e" font-size="17">0</text>
</g></svg>
